<svg width="136" height="28" xmlns="http://www.w3.org/2000/svg">

 <g>
  <title>background</title>
  <rect fill="none" id="canvas_background" height="402" width="582" y="-1" x="-1"/>
 </g>
 <g>
  <title>Layer 1</title>
  <text font-weight="bold" xml:space="preserve" text-anchor="start" font-family="Helvetica, Arial, sans-serif" font-size="24" id="svg_53" y="22.357132" x="32.92861" stroke-opacity="null" stroke-width="0" stroke="null" fill="#ffffff">HomeDo</text>
  <g stroke="null" id="svg_77">
   <g stroke="null" transform="matrix(0.053033823307779386,0,0,0.05206255212923501,-19.921170306881763,-11.121943156664013) " id="svg_58">
    <g stroke="null" id="svg_59">
     <path stroke="null" id="svg_60" fill="#ffffff" d="m714.578332,266.006535c-17.826,-17.826 -45.935,-18.72 -65.069,-3.129c-1.284,1.04 -2.609,1.943 -3.804,3.129l-192.648,192.656c-9.527,9.519 -9.519,24.963 0.008,34.481c1.187,1.187 2.479,2.235 3.829,3.129c4.056,2.682 8.738,4.016 13.42,4.016s8.145,-1.479 12.201,-4.162c1.349,-0.894 1.853,-1.796 3.04,-2.983l13.892,-15.899l0,111.361c0,49.089 47.39,89.74 98.738,89.74l171.667,0c50.316,0 87.252,-39.814 87.252,-89.74l0,-107.216l13.762,11.762c4.755,4.763 12.006,7.145 18.241,7.145c6.235,0 12.981,-2.382 17.745,-7.145c9.527,-9.519 9.779,-24.963 0.252,-34.481l-192.526,-192.664zm93.755,322.599c0,23.036 -15.046,40.968 -38.481,40.968l-171.667,0c-24.483,0 -49.966,-18.712 -49.966,-40.968l0,-160.133l127.992,-127.984l132.122,132.122l0,155.995z"/>
     <path stroke="null" id="svg_61" fill="#ffffff" d="m585.602332,485.283535c0,1.821 0.098,3.633 0.276,5.43c0.309,3.203 0.935,6.308 1.756,9.332c0.138,0.512 0.244,1.032 0.398,1.544c0.122,0.398 0.26,0.78 0.39,1.171c15.607,49.983 91.804,89.065 91.804,89.065s76.197,-39.09 91.804,-89.065c0.13,-0.39 0.268,-0.772 0.39,-1.171c0.146,-0.512 0.26,-1.024 0.398,-1.544c0.821,-3.024 1.447,-6.129 1.756,-9.332c0.179,-1.796 0.276,-3.609 0.276,-5.43c0,-30.954 -25.093,-56.055 -56.055,-56.055c-14.957,0 -28.507,5.893 -38.562,15.444c-10.055,-9.543 -23.605,-15.444 -38.562,-15.444c-30.968,0 -56.069,25.093 -56.069,56.055z"/>
    </g>
   </g>
   <g stroke="null" transform="matrix(0.053033823307779386,0,0,0.05206255212923501,-19.921170306881763,-11.121943156664013) " id="svg_62"/>
   <g stroke="null" transform="matrix(0.053033823307779386,0,0,0.05206255212923501,-19.921170306881763,-11.121943156664013) " id="svg_63"/>
   <g stroke="null" transform="matrix(0.053033823307779386,0,0,0.05206255212923501,-19.921170306881763,-11.121943156664013) " id="svg_64"/>
   <g stroke="null" transform="matrix(0.053033823307779386,0,0,0.05206255212923501,-19.921170306881763,-11.121943156664013) " id="svg_65"/>
   <g stroke="null" transform="matrix(0.053033823307779386,0,0,0.05206255212923501,-19.921170306881763,-11.121943156664013) " id="svg_66"/>
   <g stroke="null" transform="matrix(0.053033823307779386,0,0,0.05206255212923501,-19.921170306881763,-11.121943156664013) " id="svg_67"/>
   <g stroke="null" transform="matrix(0.053033823307779386,0,0,0.05206255212923501,-19.921170306881763,-11.121943156664013) " id="svg_68"/>
   <g stroke="null" transform="matrix(0.053033823307779386,0,0,0.05206255212923501,-19.921170306881763,-11.121943156664013) " id="svg_69"/>
   <g stroke="null" transform="matrix(0.053033823307779386,0,0,0.05206255212923501,-19.921170306881763,-11.121943156664013) " id="svg_70"/>
   <g stroke="null" transform="matrix(0.053033823307779386,0,0,0.05206255212923501,-19.921170306881763,-11.121943156664013) " id="svg_71"/>
   <g stroke="null" transform="matrix(0.053033823307779386,0,0,0.05206255212923501,-19.921170306881763,-11.121943156664013) " id="svg_72"/>
   <g stroke="null" transform="matrix(0.053033823307779386,0,0,0.05206255212923501,-19.921170306881763,-11.121943156664013) " id="svg_73"/>
   <g stroke="null" transform="matrix(0.053033823307779386,0,0,0.05206255212923501,-19.921170306881763,-11.121943156664013) " id="svg_74"/>
   <g stroke="null" transform="matrix(0.053033823307779386,0,0,0.05206255212923501,-19.921170306881763,-11.121943156664013) " id="svg_75"/>
   <g stroke="null" transform="matrix(0.053033823307779386,0,0,0.05206255212923501,-19.921170306881763,-11.121943156664013) " id="svg_76"/>
  </g>
 </g>
</svg>